<svg width="48" height="48" viewBox="0 0 48 48" fill="none" xmlns="http://www.w3.org/2000/svg">
<path d="M34.3526 5.36353C27.326 8.15609 20.6059 18.0297 18.4818 25.9573C16.3575 33.8849 19.311 38.0683 24 44.0001L23.9998 44.0006C31.0264 41.208 35.6759 39.0618 37.8001 31.1342C39.9243 23.2066 39.0414 11.2957 34.3525 5.36402L34.3526 5.36353Z" fill="url(#paint0_linear)"/>
<path d="M13.6473 5.36353C8.95837 11.2953 8.07543 23.2061 10.1996 31.1337C12.3238 39.0613 16.9733 41.2075 23.9999 44.0001L24.0001 44.0006C28.689 38.0688 31.6425 33.8854 29.5183 25.9578C27.3941 18.0303 20.674 8.15659 13.6474 5.36402L13.6473 5.36353Z" fill="url(#paint1_linear)"/>
<path fill-rule="evenodd" clip-rule="evenodd" d="M24 3.99951C20.7572 6.41438 18.1231 10.7623 16.3739 15.5403C12.4704 12.2776 8.01582 9.82981 4.00053 9.35994L4.00028 9.3595C1.00637 16.3027 3.23627 28.0362 7.33989 35.1439C11.4435 42.2516 16.49 43.1213 23.9999 44.0001L23.9997 44.0005C23.9999 44.0004 24 44.0004 24.0002 44.0004L24.0003 44.0005L24.0003 44.0004C31.5099 43.1216 36.5563 42.2518 40.6598 35.1443C44.7634 28.0366 46.9933 16.3031 43.9995 9.35988L43.9997 9.35944C39.9842 9.82932 35.5295 12.2773 31.6259 15.5402C29.8767 10.7624 27.2427 6.41478 24 4.00003V3.99951Z" fill="url(#paint2_radial)"/>
<circle cx="18" cy="25" r="3" fill="white"/>
<circle cx="30" cy="25" r="3" fill="white"/>
<path fill-rule="evenodd" clip-rule="evenodd" d="M18.4292 31C19.2967 31 19.9725 31.7292 20.3045 32.5307C20.5055 33.016 20.8001 33.457 21.1716 33.8284C21.543 34.1999 21.984 34.4945 22.4693 34.6955C22.9546 34.8965 23.4747 35 24 35C24.5253 35 25.0454 34.8965 25.5307 34.6955C26.016 34.4945 26.457 34.1999 26.8284 33.8284C27.1999 33.457 27.4945 33.016 27.6955 32.5307C28.0275 31.7292 28.7033 31 29.5708 31H30C31.1046 31 32.0246 31.909 31.7513 32.9792C31.6573 33.3473 31.537 33.709 31.391 34.0615C30.989 35.0321 30.3997 35.914 29.6569 36.6569C28.914 37.3997 28.0321 37.989 27.0615 38.391C26.0909 38.7931 25.0506 39 24 39C22.9494 39 21.9091 38.7931 20.9385 38.391C19.9679 37.989 19.086 37.3997 18.3431 36.6569C17.6003 35.914 17.011 35.0321 16.609 34.0615C16.463 33.709 16.3427 33.3473 16.2487 32.9792C15.9754 31.909 16.8954 31 18 31H18.4292Z" fill="white"/>
<defs>
<linearGradient id="paint0_linear" x1="34.3526" y1="5.36353" x2="23.9999" y2="44.0005" gradientUnits="userSpaceOnUse">
<stop stop-color="#FFCCE8"/>
<stop offset="1" stop-color="#FF7CC5"/>
</linearGradient>
<linearGradient id="paint1_linear" x1="13.6473" y1="5.36353" x2="24" y2="44.0005" gradientUnits="userSpaceOnUse">
<stop stop-color="#FFCCE8"/>
<stop offset="1" stop-color="#FF7CC5"/>
</linearGradient>
<radialGradient id="paint2_radial" cx="0" cy="0" r="1" gradientUnits="userSpaceOnUse" gradientTransform="translate(24 4) rotate(90) scale(40 39.4673)">
<stop stop-color="#FF7CC5"/>
<stop offset="1" stop-color="#BF0039"/>
</radialGradient>
</defs>
</svg>
